 <svg  version="1.0" xmlns="http://www.w3.org/2000/svg"  width="300.000000pt" height="300.000000pt" viewBox="0 0 300.000000 300.000000"  preserveAspectRatio="xMidYMid meet">  <g transform="translate(0.000000,300.000000) scale(0.100000,-0.100000)" fill="#3fe0d0" stroke="none"> <path d="M1416 2801 c-71 -72 -77 -80 -55 -83 23 -3 24 -7 80 -448 31 -245 58 -447 59 -450 1 -3 28 198 59 445 56 447 56 450 80 453 22 3 16 11 -55 83 -43 43 -81 79 -84 79 -3 0 -41 -36 -84 -79z"/> <path d="M947 2332 l-227 -227 0 -503 0 -502 115 0 115 0 0 115 0 115 115 0 115 0 0 -225 0 -225 -222 0 -223 0 382 -382 383 -383 345 345 345 345 -70 7 c-92 8 -125 22 -152 67 l-23 36 -3 535 c-2 294 0 564 3 600 6 57 11 69 45 102 37 37 39 38 114 38 42 0 76 3 76 8 0 13 -357 364 -362 356 -3 -5 -50 -280 -104 -612 l-99 -603 -115 3 -114 3 -101 602 c-55 331 -102 604 -105 607 -3 3 -108 -97 -233 -222z"/> <path d="M2177 1963 c-4 -3 -7 -213 -7 -465 l0 -458 115 0 115 0 0 465 0 465 -108 0 c-60 0 -112 -3 -115 -7z"/> <path d="M300 1685 l-185 -185 188 -188 187 -187 0 373 c0 204 -1 372 -3 372 -1 0 -85 -83 -187 -185z"/> <path d="M2630 1500 l0 -255 127 128 128 127 -128 127 -127 128 0 -255z"/> </g> </svg> 